{
	"asset":{
		"generator":"Khronos glTF Blender I/O v3.5.30",
		"version":"2.0"
	},
	"scene":0,
	"scenes":[
		{
			"name":"Scene",
			"nodes":[
				4
			]
		}
	],
	"nodes":[
		{
			"mesh":0,
			"name":"Object_4"
		},
		{
			"children":[
				0
			],
			"name":"BaseSpiderMan_0"
		},
		{
			"children":[
				1
			],
			"name":"GLTF_SceneRootNode"
		},
		{
			"children":[
				2
			],
			"name":"root"
		},
		{
			"children":[
				3
			],
			"name":"Sketchfab_model"
		}
	],
	"materials":[
		{
			"doubleSided":true,
			"name":"Material.001",
			"pbrMetallicRoughness":{
				"metallicFactor":0,
				"roughnessFactor":0.5
			}
		}
	],
	"meshes":[
		{
			"name":"Object_0",
			"primitives":[
				{
					"attributes":{
						"POSITION":0,
						"TEXCOORD_0":1,
						"NORMAL":2
					},
					"indices":3,
					"material":0
				}
			]
		}
	],
	"accessors":[
		{
			"bufferView":0,
			"componentType":5126,
			"count":18114,
			"max":[
				0.4079003930091858,
				0.9996298551559448,
				0.10452546179294586
			],
			"min":[
				-0.4031616449356079,
				1.8859556803363375e-05,
				-0.09745430946350098
			],
			"type":"VEC3"
		},
		{
			"bufferView":1,
			"componentType":5126,
			"count":18114,
			"type":"VEC2"
		},
		{
			"bufferView":2,
			"componentType":5126,
			"count":18114,
			"type":"VEC3"
		},
		{
			"bufferView":3,
			"componentType":5123,
			"count":99720,
			"type":"SCALAR"
		}
	],
	"bufferViews":[
		{
			"buffer":0,
			"byteLength":217368,
			"byteOffset":0,
			"target":34962
		},
		{
			"buffer":0,
			"byteLength":144912,
			"byteOffset":217368,
			"target":34962
		},
		{
			"buffer":0,
			"byteLength":217368,
			"byteOffset":362280,
			"target":34962
		},
		{
			"buffer":0,
			"byteLength":199440,
			"byteOffset":579648,
			"target":34963
		}
	],
	"buffers":[
		{
			"byteLength":779088,
			"uri":"human.bin"
		}
	]
}
